PathFileType	4	(X/Y/Z)	59_1_7_p0_0-231.trc
DataRate	CameraRate	NumFrames	NumMarkers	Units	OrigDataRate	OrigDataStartFrame	OrigNumFrames
59.0	59.0	6	27	m	59.0	0	232
Frame#	Time	RHip			RKnee			RAnkle			RBigToe			RSmallToe			RHeel			LHip			LKnee			LAnkle			LBigToe			LSmallToe			LHeel			Neck			Head			Nose			RShoulder			RElbow			RWrist			RThumb			RIndex			RPinky			LShoulder			LElbow			LWrist			LThumb			LIndex			LPinky			
		X1	Y1	Z1	X2	Y2	Z2	X3	Y3	Z3	X4	Y4	Z4	X5	Y5	Z5	X6	Y6	Z6	X7	Y7	Z7	X8	Y8	Z8	X9	Y9	Z9	X10	Y10	Z10	X11	Y11	Z11	X12	Y12	Z12	X13	Y13	Z13	X14	Y14	Z14	X15	Y15	Z15	X16	Y16	Z16	X17	Y17	Z17	X18	Y18	Z18	X19	Y19	Z19	X20	Y20	Z20	X21	Y21	Z21	X22	Y22	Z22	X23	Y23	Z23	X24	Y24	Z24	X25	Y25	Z25	X26	Y26	Z26	X27	Y27	Z27	
0	0.0	0.34518657177100515	0.43781304849753555	0.9743675774963454	0.3284720003797504	0.6209848648968632	1.4630887754786295	0.29601304303211157	0.7905500297534175	1.912869205571988	0.29722068310863214	0.580641353628158	1.944750936505937	0.3557709179645829	0.595539021259065	1.930928784640455	0.2722415028568513	0.8292019474275739	1.9598205586939264	0.12872333732336552	0.4692247660395484	0.9935525729267222	0.12455263499581481	0.607296751632286	1.4529678085935986	0.12288936157774653	0.7526945200311889	1.8839923797863576	0.1295647407470842	0.5493486362225116	1.9254615273178817	0.06733223480518517	0.605459706228484	1.9237177787547488	0.1425756111261022	0.8022216957669696	1.9455654292905264	0.2239723345268819	0.30302384076281147	0.37344809762959397	0.22533838142696208	0.1675546987797387	0.1255747717181804	0.21079002882125272	0.14902999029035816	0.2604994072326038	0.39022477493148755	0.3149632221443557	0.4660713317458819	0.42514103509986617	0.3494544936773073	0.7702015725354069	0.30958088993193505	0.3229299969349254	1.0195486859361997	0.20898121483028387	0.3548288820733966	1.0950207056479961	0.20994039720319646	0.3766030852832778	1.132280737714274	0.22603813054513547	0.3541862392355743	1.1398798517437498	0.05398521262027371	0.36895746773259935	0.48751594052697605	0.053725277271918	0.4057224017748364	0.7920076106276871	0.17646624702143313	0.2634734390699458	0.9912332407034411	0.2710066301322078	0.2701389481806155	1.0437850750539455	0.2733121925880073	0.2685059049392567	1.0827845831085332	0.24145415584269908	0.345046009329815	1.1359764565406096
1	0.01694915254237288	0.3446511511422288	0.4362257121176817	0.9702991712591496	0.32850266000831857	0.6213253369401779	1.4630673706682271	0.297009237547793	0.7886704228611084	1.9078860115600835	0.29712733525351404	0.5802835093395358	1.9448871851736642	0.3547428573844204	0.5931686630640196	1.9298662073675534	0.27198869397123543	0.8290234834665212	1.9591709718495285	0.12890911588559886	0.4698365935088317	0.993588795868782	0.12959236637294264	0.6070143900521997	1.4487591735860201	0.12779668570857225	0.736369612684027	1.8773999776944654	0.124389880795305	0.549449262759933	1.9209407216776935	0.07157812137060339	0.5930210280706099	1.9135409180369929	0.14693826246678568	0.8148720544740249	1.9454089727600687	0.22395099175825325	0.3030183054164997	0.3735526630619061	0.22539663443810745	0.16739866678982726	0.12551679290875561	0.20784904138743027	0.13930043614179236	0.2618507747108125	0.39021471005378966	0.3149812068123478	0.4661303573708966	0.4251521400787326	0.34935632456366	0.7701579652112808	0.30957963106696995	0.32329447901074987	1.0196611509948816	0.20917891213616444	0.3550906925420088	1.0951764938916309	0.20631944649584807	0.3758587268673374	1.1327052415725	0.2253213815384846	0.35600751596045793	1.1434437437961105	0.05784517331245493	0.3701500523526117	0.48731328879817454	0.0535463956783313	0.40616062959961774	0.7919484633730705	0.17638532451207403	0.2635389983773915	0.9911887093620616	0.26816479252599734	0.261756232758511	1.046021480418372	0.2697637921938345	0.279607457322512	1.0849499463524659	0.23692374154227117	0.3567043936537651	1.1345767811534637
2	0.03389830508474576	0.3446605800649663	0.43643557623975016	0.9702997495228607	0.3285543399495445	0.6213192815687753	1.463184302359499	0.2969922684840792	0.788714261907044	1.9077897143590232	0.29716309399155294	0.5806050777664346	1.9446778061943386	0.35482260398407356	0.5968504992249726	1.9261531357058055	0.2720333355483471	0.829348919121305	1.9593872652112467	0.12886969187333963	0.47037726002582525	0.9938187625610887	0.12957503676183338	0.6073657553084453	1.4488421936911247	0.12876589537094218	0.7393860708208534	1.882879526035352	0.1247951689882706	0.5472669809204096	1.924708533582462	0.06682798276611969	0.6078829161737943	1.9200111377391693	0.1429998548418268	0.8016920380588399	1.9355008739420052	0.2238415633165187	0.3038639479435856	0.3769844261015378	0.225429401310627	0.16727985975000015	0.12551921267874083	0.2041815820382551	0.1377681056066136	0.2620670679001806	0.3902594065541611	0.31505828837529454	0.46622211116476603	0.42512217993972085	0.34937567615177506	0.7703297264862348	0.3095511984697014	0.3232847411935435	1.019744860336159	0.20924067611803737	0.3548890444013355	1.095511051982631	0.20639561297560827	0.3758458915628013	1.1329218526979434	0.2258338187158374	0.3552828904458137	1.1400358556392898	0.057851237775555356	0.37010884127000354	0.4873373229021738	0.05322916648476179	0.40428285990670054	0.7882924948970419	0.1763683365240388	0.2636414686752553	0.9912442625354084	0.26816278502441937	0.26186048381976995	1.0460693680701456	0.2697411474700075	0.2801102680178686	1.085206443957732	0.23678320639017209	0.3576890757395342	1.1349778038540177
3	0.05084745762711865	0.34467065662141394	0.4365037633926976	0.9702960554476192	0.328623702411601	0.6213135867212572	1.4632000030176615	0.2970332989937224	0.7885163256278249	1.9078097310330149	0.29701350394488013	0.5802596046433156	1.9449901016696893	0.35727925189583337	0.6054937016665288	1.930291570389074	0.2729262410653512	0.8267415785281318	1.9535808750030557	0.12882649160076587	0.47008543817930426	0.993756219248774	0.12468113553116081	0.6220823085796185	1.4531196225529541	0.12885075408578722	0.7393114180200526	1.8827718188231939	0.12479334665604014	0.547577283203352	1.924960830671293	0.06727708255955504	0.605654184646891	1.9237391061750575	0.14632604579046687	0.8159379204411195	1.9411167986039	0.22398403779095294	0.3030207422857855	0.3736735918042804	0.22544897990830345	0.16727317970401023	0.1254844669029368	0.20776328763675894	0.13891084031220485	0.2616977058859711	0.39023858262598965	0.31512403130300104	0.46620493488104187	0.42546390801642353	0.35226700039613595	0.777354816135339	0.3094748702469331	0.3233051112043913	1.0197785312903014	0.21210289486709366	0.3558482132125634	1.0953188796320958	0.20715623314666842	0.3782041803779216	1.1376231722499472	0.22615938957413514	0.358201856084863	1.148179083109313	0.05787726367886979	0.3700900480973438	0.48726383266739315	0.05397662365692947	0.40524050107878956	0.7882492014789015	0.1764588756540297	0.2639120308531217	0.9913652962175045	0.2681672332221606	0.26180634251533397	1.0460799804989867	0.26997924773235493	0.2806183613611154	1.0856044118687633	0.23728062602184855	0.3591959491447614	1.1390827626822995
4	0.06779661016949153	0.3446778732820729	0.43656720841229474	0.9702846852815099	0.3276777696205867	0.6189443705651012	1.458231515344937	0.2922440998077256	0.7875365438963446	1.907735625752814	0.29294435106039046	0.5952633554224632	1.9524287452447273	0.35617169990216546	0.6021192641207732	1.9297517640969588	0.2766896021889148	0.8420896933631502	1.9593967311451148	0.12880027081141687	0.47015977699998174	0.9937556016466752	0.12454285664526414	0.6216478894475815	1.4528952594676565	0.12786969417519864	0.7361148138680518	1.877185905807284	0.12470978035074233	0.5478960609548972	1.9250887556954515	0.06718224564607987	0.6056627917406341	1.9237689924869201	0.1463835506255545	0.8160796888505544	1.9411273455831364	0.22399992507598276	0.30288821978220287	0.37366822804249533	0.22549239642385074	0.16715780153443646	0.12552434106083002	0.20409170896138384	0.13759712330500165	0.26196575395865745	0.390250329932083	0.31509373746961206	0.4661644725401124	0.4250892825914306	0.34966670363782565	0.7774880134308837	0.30597979884035437	0.3357697858355772	1.0216902816577054	0.209088197221628	0.3555156785266358	1.0953201709190847	0.2106137094186004	0.37891108019100334	1.1377380269076096	0.2256542255694495	0.35608471658267443	1.1438698936065768	0.057851182153674394	0.36998244660539026	0.48729025536918164	0.0539805591198024	0.4051860431023675	0.7882637292244679	0.1765437318197929	0.2638502563837806	0.9914407007952782	0.2645633305350234	0.2733314263329803	1.0480418208009952	0.27001608586972564	0.28004445348264545	1.0854957979386672	0.23679120334880366	0.35768949410798095	1.1351508341935526
5	0.0847457627118644	0.3446973771077188	0.436654373334683	0.9701895830926209	0.3308075531887475	0.6298565515887526	1.4569398403987255	0.2922219652745829	0.7874700825781114	1.9077305904608657	0.2968842543168608	0.5796467119981034	1.9452913191490835	0.3563059032466495	0.6022362383006946	1.9297301428970464	0.27284709358282583	0.8266609090805771	1.9533412889745718	0.13280799413997782	0.471510185742881	0.9937069963603192	0.12455472951621194	0.6218040789971496	1.4530858860478757	0.12787712937717838	0.7363076762058841	1.8772634227070129	0.12462865049240557	0.5476656127617809	1.924932257800734	0.062382774022204955	0.6041138208601028	1.92323927196989	0.14636250283820332	0.8159796278268551	1.9410634627723022	0.22402014569323175	0.3028174357637984	0.3736551777957441	0.22548111469560472	0.1670825690319031	0.1255285835668702	0.2041368919138539	0.137670912461371	0.2619686043862431	0.3902460414725313	0.3150815538490205	0.46619053949965716	0.4253653671971675	0.34852413152133166	0.7740458759412375	0.3095910906864381	0.32367730751431106	1.0198995114899914	0.2090228476794459	0.3556749596264382	1.095331739054155	0.20704973291503526	0.3784176476687289	1.137738294143585	0.22655446757605105	0.35810097305769056	1.1483968079010087	0.05405842861861358	0.36885235587625237	0.48737046990580735	0.053541904924827965	0.4060478461431584	0.7919581065687522	0.1765980634836877	0.2640099420246021	0.9914911242814393	0.2646934799602109	0.2734565979280368	1.0479327174483806	0.27069526465369753	0.2821386186803975	1.08946661683802	0.23746382035023111	0.3578745960153455	1.1350384562952558
